<svg xmlns="http://www.w3.org/2000/svg" xmlns:xlink="http://www.w3.org/1999/xlink" width="500" viewBox="0 0 375 374.999991" height="500" preserveAspectRatio="xMidYMid meet"><defs><clipPath id="1e34dff55f"><path d="M 38 7.449219 L 337 7.449219 L 337 337.449219 L 38 337.449219 Z M 38 7.449219"/></clipPath><clipPath id="4a69a332ef"><path d="M 59.433594 71.65625 L 306 71.65625 L 306 206.65625 L 59.433594 206.65625 Z M 59.433594 71.65625"/></clipPath><clipPath id="db6c5d6552"><path d="M 210 125 L 306 125 L 306 206.65625 L 210 206.65625 Z M 210 125"/></clipPath><clipPath id="53516c164e"><path d="M 71.117188 212.800781 L 303.617188 212.800781 L 303.617188 287.800781 L 71.117188 287.800781 Z M 71.117188 212.800781"/></clipPath><clipPath id="1cceb6c421"><path d="M 101 245.167969 L 173 245.167969 L 173 358 L 101 358 Z M 101 245.167969"/></clipPath><clipPath id="445b5fec16"><path d="M 0.28125 0.167969 L 71.078125 0.167969 L 71.078125 112.839844 L 0.28125 112.839844 Z M 0.28125 0.167969"/></clipPath><clipPath id="18101988c0"><path d="M 6 0.167969 L 65 0.167969 L 65 102 L 6 102 Z M 6 0.167969"/></clipPath><clipPath id="688edbcc33"><rect x="0" width="72" y="0" height="113"/></clipPath><clipPath id="6310cd7b82"><path d="M 0.28125 0.167969 L 71.078125 0.167969 L 71.078125 112.839844 L 0.28125 112.839844 Z M 0.28125 0.167969"/></clipPath><clipPath id="73e8afeea0"><path d="M 1.105469 0.167969 L 70.757812 0.167969 L 70.757812 111.921875 L 1.105469 111.921875 Z M 1.105469 0.167969"/></clipPath><clipPath id="c3663a8128"><rect x="0" width="72" y="0" height="113"/></clipPath><clipPath id="8ebd43c553"><rect x="0" width="72" y="0" height="113"/></clipPath><clipPath id="bbdfedb380"><path d="M 6 0.167969 L 65 0.167969 L 65 102 L 6 102 Z M 6 0.167969"/></clipPath><clipPath id="58a507bf17"><rect x="0" width="72" y="0" height="113"/></clipPath><clipPath id="a7008794af"><rect x="0" width="72" y="0" height="113"/></clipPath><clipPath id="e87a9d02e0"><path d="M 94.769531 322 L 137 322 L 137 360 L 94.769531 360 Z M 94.769531 322"/></clipPath><clipPath id="6f2980a8ef"><path d="M 0.769531 0.320312 L 42.800781 0.320312 L 42.800781 38 L 0.769531 38 Z M 0.769531 0.320312"/></clipPath><clipPath id="1672cc5e2e"><path d="M 0.769531 5 L 38 5 L 38 35 L 0.769531 35 Z M 0.769531 5"/></clipPath><clipPath id="e54a453418"><rect x="0" width="43" y="0" height="38"/></clipPath><clipPath id="b4c7de7855"><path d="M 0.769531 0.320312 L 42.800781 0.320312 L 42.800781 38 L 0.769531 38 Z M 0.769531 0.320312"/></clipPath><clipPath id="1cee21d232"><path d="M 1 2.191406 L 41.394531 2.191406 L 41.394531 37.351562 L 1 37.351562 Z M 1 2.191406"/></clipPath><clipPath id="9f9f8a5d0e"><rect x="0" width="43" y="0" height="38"/></clipPath><clipPath id="fc823a9da1"><rect x="0" width="43" y="0" height="38"/></clipPath><clipPath id="aacfd82e25"><path d="M 0.769531 5 L 38 5 L 38 35 L 0.769531 35 Z M 0.769531 5"/></clipPath><clipPath id="ecf6930882"><rect x="0" width="43" y="0" height="38"/></clipPath><clipPath id="261c117d3c"><rect x="0" width="43" y="0" height="38"/></clipPath><clipPath id="9667a21ce1"><path d="M 191 245.167969 L 265 245.167969 L 265 358 L 191 358 Z M 191 245.167969"/></clipPath><clipPath id="b8557c5896"><path d="M 0.761719 0.167969 L 73.71875 0.167969 L 73.71875 112.839844 L 0.761719 112.839844 Z M 0.761719 0.167969"/></clipPath><clipPath id="a0d1ca2513"><path d="M 8 0.167969 L 67 0.167969 L 67 102 L 8 102 Z M 8 0.167969"/></clipPath><clipPath id="52795232d9"><rect x="0" width="74" y="0" height="113"/></clipPath><clipPath id="abfd9be596"><path d="M 0.761719 0.167969 L 73.71875 0.167969 L 73.71875 112.839844 L 0.761719 112.839844 Z M 0.761719 0.167969"/></clipPath><clipPath id="aaca3ad98f"><path d="M 2.324219 0.167969 L 71.976562 0.167969 L 71.976562 111.921875 L 2.324219 111.921875 Z M 2.324219 0.167969"/></clipPath><clipPath id="acfa94cc1c"><rect x="0" width="74" y="0" height="113"/></clipPath><clipPath id="6e5ae46f43"><rect x="0" width="74" y="0" height="113"/></clipPath><clipPath id="37c13bf048"><path d="M 8 0.167969 L 67 0.167969 L 67 102 L 8 102 Z M 8 0.167969"/></clipPath><clipPath id="266bf27602"><rect x="0" width="74" y="0" height="113"/></clipPath><clipPath id="009b025afa"><rect x="0" width="74" y="0" height="113"/></clipPath><clipPath id="c0d4539062"><path d="M 229 322 L 270.269531 322 L 270.269531 360 L 229 360 Z M 229 322"/></clipPath><clipPath id="6129293a03"><path d="M 0.199219 0.320312 L 41.269531 0.320312 L 41.269531 38 L 0.199219 38 Z M 0.199219 0.320312"/></clipPath><clipPath id="425beb4e02"><path d="M 4 5 L 41.269531 5 L 41.269531 35 L 4 35 Z M 4 5"/></clipPath><clipPath id="e7b04baa35"><rect x="0" width="42" y="0" height="38"/></clipPath><clipPath id="6b7898989f"><path d="M 0.199219 0.320312 L 41.269531 0.320312 L 41.269531 38 L 0.199219 38 Z M 0.199219 0.320312"/></clipPath><clipPath id="c76162cc42"><path d="M 1 2.191406 L 41 2.191406 L 41 37.351562 L 1 37.351562 Z M 1 2.191406"/></clipPath><clipPath id="faf6a9497f"><rect x="0" width="42" y="0" height="38"/></clipPath><clipPath id="d21162bbb5"><rect x="0" width="42" y="0" height="38"/></clipPath><clipPath id="c42c4dd590"><path d="M 4 5 L 41.269531 5 L 41.269531 35 L 4 35 Z M 4 5"/></clipPath><clipPath id="eb8a80bcf9"><rect x="0" width="42" y="0" height="38"/></clipPath><clipPath id="7a98f2cf1d"><rect x="0" width="42" y="0" height="38"/></clipPath><clipPath id="fa90e1ece7"><path d="M 167 245.167969 L 197 245.167969 L 197 356 L 167 356 Z M 167 245.167969"/></clipPath><clipPath id="f164806d20"><path d="M 0.519531 0.167969 L 29.320312 0.167969 L 29.320312 110.679688 L 0.519531 110.679688 Z M 0.519531 0.167969"/></clipPath><clipPath id="df34d2c0ba"><path d="M 4 0.167969 L 27 0.167969 L 27 100 L 4 100 Z M 4 0.167969"/></clipPath><clipPath id="2399a420fc"><rect x="0" width="30" y="0" height="111"/></clipPath><clipPath id="9de73c0a6d"><path d="M 0.519531 0.167969 L 29.320312 0.167969 L 29.320312 110.679688 L 0.519531 110.679688 Z M 0.519531 0.167969"/></clipPath><clipPath id="315bedb52d"><path d="M 2.261719 0.167969 L 28.824219 0.167969 L 28.824219 109 L 2.261719 109 Z M 2.261719 0.167969"/></clipPath><clipPath id="dbc2d07719"><rect x="0" width="30" y="0" height="111"/></clipPath><clipPath id="6c65b99b60"><rect x="0" width="30" y="0" height="111"/></clipPath><clipPath id="842ecb80d2"><path d="M 4 0.167969 L 27 0.167969 L 27 100 L 4 100 Z M 4 0.167969"/></clipPath><clipPath id="89c2cca3d6"><rect x="0" width="30" y="0" height="111"/></clipPath><clipPath id="0be7e05630"><rect x="0" width="30" y="0" height="111"/></clipPath><clipPath id="ecb35a7567"><path d="M 158 335 L 208 335 L 208 365.917969 L 158 365.917969 Z M 158 335"/></clipPath><clipPath id="f6eb06ae57"><path d="M 0.640625 0.519531 L 49.359375 0.519531 L 49.359375 30.917969 L 0.640625 30.917969 Z M 0.640625 0.519531"/></clipPath><clipPath id="0cfbdcec60"><path d="M 4 5 L 45 5 L 45 30.917969 L 4 30.917969 Z M 4 5"/></clipPath><clipPath id="00aac0f819"><rect x="0" width="50" y="0" height="31"/></clipPath><clipPath id="4d7ea117a2"><path d="M 0.640625 0.519531 L 49.359375 0.519531 L 49.359375 30.917969 L 0.640625 30.917969 Z M 0.640625 0.519531"/></clipPath><clipPath id="030cd5e31f"><path d="M 1.046875 3 L 48 3 L 48 30.917969 L 1.046875 30.917969 Z M 1.046875 3"/></clipPath><clipPath id="58c0b82d20"><rect x="0" width="50" y="0" height="31"/></clipPath><clipPath id="9c44e88f41"><rect x="0" width="50" y="0" height="31"/></clipPath><clipPath id="23034e3eae"><path d="M 4 5 L 45 5 L 45 30.917969 L 4 30.917969 Z M 4 5"/></clipPath><clipPath id="75ee02390e"><rect x="0" width="50" y="0" height="31"/></clipPath><clipPath id="fd3b12f6d9"><rect x="0" width="50" y="0" height="31"/></clipPath></defs><g id="85ed80bd5b"><rect x="0" width="375" y="0" height="374.999991" fill="rgb(255, 255, 255)" fill-opacity="1" stroke="none"/><rect x="0" width="375" y="0" height="374.999991" fill="rgb(255, 255, 255)" fill-opacity="1" stroke="none"/><g clip-rule="nonzero" clip-path="url(#1e34dff55f)"><path d="M 187.574219 337.378906 L 186.257812 336.980469 C 145.089844 324.117188 111.90625 301.226562 87.433594 268.964844 C 67.972656 243.238281 54.050781 211.503906 46.136719 174.757812 C 32.675781 112.417969 40.921875 57.859375 41.320312 55.550781 L 41.714844 52.847656 L 187.511719 7.523438 L 333.304688 52.847656 L 333.703125 55.550781 C 334.03125 57.859375 342.277344 112.417969 328.886719 174.757812 C 320.96875 211.503906 307.050781 243.238281 287.585938 268.964844 C 263.179688 301.226562 229.929688 324.117188 188.761719 336.980469 Z M 49.566406 59.507812 C 48.046875 71.25 43.167969 119.9375 54.710938 173.175781 C 62.363281 208.667969 75.753906 239.148438 94.492188 263.820312 C 117.515625 294.234375 148.851562 315.9375 187.574219 328.273438 C 226.367188 315.871094 257.703125 294.167969 280.726562 263.6875 C 299.460938 238.949219 312.789062 208.40625 320.441406 172.914062 C 331.921875 119.738281 327.039062 71.1875 325.519531 59.507812 L 187.511719 16.628906 Z M 49.566406 59.507812" stroke="none" fill-rule="nonzero" fill="rgb(67, 67, 69)" fill-opacity="1"/></g><g clip-rule="nonzero" clip-path="url(#4a69a332ef)"><path d="M 294.613281 71.699219 L 126.890625 71.699219 C 89.636719 71.699219 59.433594 101.902344 59.433594 139.15625 C 59.433594 176.410156 89.636719 206.613281 126.890625 206.613281 C 164.144531 206.613281 194.34375 176.410156 194.34375 139.15625 C 194.34375 134.546875 193.886719 130.066406 193.003906 125.714844 L 129.882812 125.714844 L 129.882812 148.097656 L 171.082031 148.097656 C 166.933594 168.699219 148.71875 184.210938 126.90625 184.210938 C 102.011719 184.210938 81.832031 164.035156 81.832031 139.136719 C 81.832031 114.242188 102.011719 94.0625 126.90625 94.0625 L 305.445312 94.0625 L 305.445312 71.699219 Z M 294.613281 71.699219" stroke="none" fill-rule="nonzero" fill="rgb(0, 74, 173)" fill-opacity="1"/></g><g clip-rule="nonzero" clip-path="url(#db6c5d6552)"><path d="M 210.574219 129.40625 L 210.574219 206.613281 L 305.425781 206.613281 L 305.425781 184.230469 L 232.957031 184.230469 L 232.957031 148.117188 L 305.425781 148.117188 L 305.425781 125.714844 L 210.574219 125.714844 Z M 210.574219 129.40625" stroke="none" fill-rule="nonzero" fill="rgb(46, 46, 46)" fill-opacity="1"/></g><path d="M 143.726562 284.773438 L 231.046875 284.773438 L 232.316406 282.164062 L 142.457031 282.164062 Z M 229.875 282.777344 L 229.226562 284.183594 L 145.546875 284.183594 L 144.898438 282.777344 Z M 229.875 282.777344" stroke="none" fill-rule="nonzero" fill="rgb(0, 0, 0)" fill-opacity="1"/><path d="M 122.972656 242.070312 L 141.402344 279.988281 L 233.371094 279.988281 L 251.800781 242.070312 Z M 173.433594 279.335938 L 173.195312 277.6875 L 201.582031 277.6875 L 201.613281 277.457031 L 173.160156 277.457031 L 172.875 275.507812 L 201.898438 275.507812 L 201.933594 275.265625 L 172.839844 275.265625 L 172.539062 273.226562 L 202.234375 273.226562 L 201.933594 275.265625 L 201.898438 275.507812 L 201.613281 277.457031 L 201.582031 277.6875 L 201.339844 279.335938 Z M 172.152344 270.574219 L 171.824219 268.332031 L 202.949219 268.332031 L 202.621094 270.574219 L 202.582031 270.835938 L 202.269531 272.976562 L 172.503906 272.976562 L 172.191406 270.835938 L 202.582031 270.835938 L 202.621094 270.574219 Z M 202.992188 268.058594 L 171.785156 268.058594 L 171.4375 265.707031 L 203.335938 265.707031 Z M 203.378906 265.417969 L 171.398438 265.417969 L 171.035156 262.945312 L 203.738281 262.945312 Z M 170.992188 262.644531 L 170.609375 260.042969 L 204.164062 260.042969 L 204.210938 259.722656 L 170.5625 259.722656 L 170.160156 256.980469 L 204.613281 256.980469 L 204.660156 256.644531 L 170.113281 256.644531 L 169.6875 253.757812 L 205.085938 253.757812 L 205.136719 253.402344 L 169.636719 253.402344 L 169.191406 250.347656 L 205.585938 250.347656 L 205.136719 253.402344 L 205.085938 253.757812 L 204.660156 256.644531 L 204.613281 256.980469 L 204.210938 259.722656 L 204.164062 260.042969 L 203.78125 262.644531 Z M 169.136719 249.972656 L 168.660156 246.738281 L 206.113281 246.738281 L 206.171875 246.34375 L 168.605469 246.34375 L 168.164062 243.332031 L 206.609375 243.332031 L 206.171875 246.34375 L 206.113281 246.738281 L 205.640625 249.972656 Z M 170.890625 277.457031 L 142.4375 277.457031 L 141.53125 275.507812 L 170.558594 275.507812 L 170.515625 275.265625 L 141.421875 275.265625 L 140.476562 273.226562 L 170.171875 273.226562 L 170.128906 272.976562 L 140.363281 272.976562 L 139.371094 270.835938 L 169.765625 270.835938 L 169.722656 270.574219 L 139.25 270.574219 L 138.214844 268.332031 L 169.339844 268.332031 L 169.292969 268.058594 L 138.085938 268.058594 L 137 265.707031 L 168.894531 265.707031 L 168.84375 265.417969 L 136.863281 265.417969 L 135.722656 262.945312 L 168.425781 262.945312 L 168.375 262.644531 L 135.582031 262.644531 L 134.378906 260.042969 L 167.933594 260.042969 L 167.878906 259.722656 L 134.230469 259.722656 L 132.960938 256.980469 L 167.414062 256.980469 L 167.355469 256.644531 L 132.804688 256.644531 L 131.46875 253.757812 L 166.863281 253.757812 L 166.804688 253.402344 L 131.304688 253.402344 L 129.890625 250.347656 L 166.285156 250.347656 L 166.222656 249.972656 L 129.71875 249.972656 L 128.222656 246.738281 L 165.671875 246.738281 L 165.605469 246.34375 L 128.039062 246.34375 L 126.644531 243.332031 L 165.09375 243.332031 L 165.046875 243.0625 L 165.09375 243.332031 L 165.605469 246.34375 L 165.671875 246.738281 L 166.222656 249.972656 L 166.285156 250.347656 L 166.804688 253.402344 L 166.863281 253.757812 L 167.355469 256.644531 L 167.414062 256.980469 L 167.878906 259.722656 L 167.933594 260.042969 L 168.375 262.644531 L 168.425781 262.945312 L 168.84375 265.417969 L 168.894531 265.707031 L 169.292969 268.058594 L 169.339844 268.332031 L 169.722656 270.574219 L 169.765625 270.835938 L 170.128906 272.976562 L 170.171875 273.226562 L 170.519531 275.265625 L 170.558594 275.507812 L 170.890625 277.457031 L 170.929688 277.6875 L 171.207031 279.335938 L 171.234375 279.480469 L 171.207031 279.335938 L 143.304688 279.335938 L 142.542969 277.6875 L 170.929688 277.6875 Z M 231.46875 279.335938 L 203.558594 279.335938 L 203.839844 277.6875 L 232.234375 277.6875 Z M 232.339844 277.457031 L 203.878906 277.457031 L 204.210938 275.507812 L 233.242188 275.507812 Z M 233.351562 275.265625 L 204.25 275.265625 L 204.597656 273.226562 L 234.296875 273.226562 Z M 234.410156 272.976562 L 204.636719 272.976562 L 205 270.835938 L 235.402344 270.835938 Z M 235.523438 270.574219 L 205.046875 270.574219 L 205.425781 268.332031 L 236.558594 268.332031 Z M 236.6875 268.058594 L 205.472656 268.058594 L 205.871094 265.707031 L 237.773438 265.707031 Z M 237.910156 265.417969 L 205.921875 265.417969 L 206.339844 262.945312 L 239.054688 262.945312 Z M 239.191406 262.644531 L 206.394531 262.644531 L 206.835938 260.042969 L 240.398438 260.042969 Z M 240.542969 259.722656 L 206.886719 259.722656 L 207.355469 256.980469 L 241.8125 256.980469 Z M 241.96875 256.644531 L 207.410156 256.644531 L 207.902344 253.757812 L 243.304688 253.757812 Z M 243.46875 253.402344 L 207.960938 253.402344 L 208.480469 250.347656 L 244.882812 250.347656 Z M 245.054688 249.972656 L 208.542969 249.972656 L 209.09375 246.738281 L 246.550781 246.738281 Z M 246.734375 246.34375 L 209.160156 246.34375 L 209.105469 246.671875 L 209.160156 246.34375 L 209.671875 243.332031 L 248.128906 243.332031 Z M 246.734375 246.34375" stroke="none" fill-rule="nonzero" fill="rgb(0, 0, 0)" fill-opacity="1"/><path d="M 240.921875 279.988281 L 250.488281 279.988281 L 275.777344 242.070312 L 262.375 242.070312 Z M 271.878906 243.332031 L 248.703125 279.335938 L 243.519531 279.335938 L 264.730469 243.332031 Z M 271.878906 243.332031" stroke="none" fill-rule="nonzero" fill="rgb(0, 0, 0)" fill-opacity="1"/><path d="M 98.996094 242.070312 L 124.285156 279.988281 L 133.847656 279.988281 L 112.390625 242.070312 Z M 126.070312 279.335938 L 102.898438 243.332031 L 110.046875 243.332031 L 131.257812 279.335938 Z M 126.070312 279.335938" stroke="none" fill-rule="nonzero" fill="rgb(0, 0, 0)" fill-opacity="1"/><path d="M 253.992188 237.5625 L 256.992188 231.386719 L 117.78125 231.386719 L 120.78125 237.5625 Z M 252.972656 232.859375 L 251.4375 236.183594 L 123.339844 236.183594 L 121.800781 232.859375 Z M 252.972656 232.859375" stroke="none" fill-rule="nonzero" fill="rgb(0, 0, 0)" fill-opacity="1"/><g clip-rule="nonzero" clip-path="url(#53516c164e)"><path d="M 303.550781 216.558594 C 303.574219 216.390625 303.574219 216.226562 303.550781 216.066406 C 303.46875 215.453125 303.085938 214.898438 302.4375 214.425781 C 301.785156 213.953125 300.867188 213.566406 299.722656 213.300781 C 298.570312 213.03125 297.195312 212.882812 295.636719 212.882812 L 79.125 212.882812 C 77.570312 212.882812 76.195312 213.03125 75.046875 213.300781 C 73.902344 213.566406 72.984375 213.953125 72.332031 214.425781 C 71.6875 214.898438 71.300781 215.453125 71.21875 216.066406 C 71.199219 216.226562 71.199219 216.390625 71.21875 216.554688 L 71.21875 226.316406 C 71.140625 226.925781 71.351562 227.589844 71.894531 228.277344 L 117.421875 285.957031 C 117.617188 286.207031 117.988281 286.445312 118.492188 286.660156 C 118.988281 286.875 119.617188 287.066406 120.332031 287.226562 C 121.042969 287.386719 121.839844 287.515625 122.683594 287.605469 C 123.523438 287.695312 124.410156 287.742188 125.304688 287.742188 L 249.464844 287.742188 C 250.359375 287.742188 251.246094 287.695312 252.085938 287.605469 C 252.929688 287.515625 253.730469 287.386719 254.441406 287.226562 C 255.15625 287.066406 255.785156 286.875 256.28125 286.660156 C 256.785156 286.445312 257.15625 286.207031 257.355469 285.957031 L 302.878906 228.277344 C 303.421875 227.589844 303.636719 226.925781 303.554688 226.320312 Z M 299.46875 228.277344 L 255.289062 285.957031 C 255.15625 286.128906 254.902344 286.292969 254.5625 286.441406 C 254.21875 286.589844 253.789062 286.722656 253.296875 286.832031 C 252.804688 286.945312 252.253906 287.035156 251.671875 287.097656 C 251.089844 287.160156 250.476562 287.191406 249.859375 287.191406 L 124.910156 287.191406 C 124.292969 287.191406 123.679688 287.160156 123.101562 287.097656 C 122.519531 287.035156 121.96875 286.945312 121.476562 286.832031 C 120.984375 286.722656 120.554688 286.589844 120.210938 286.441406 C 119.871094 286.292969 119.617188 286.128906 119.484375 285.957031 L 75.304688 228.277344 C 74.945312 227.804688 74.808594 227.351562 74.875 226.9375 C 74.941406 226.519531 75.214844 226.140625 75.664062 225.820312 C 76.113281 225.5 76.746094 225.242188 77.527344 225.058594 C 78.3125 224.878906 79.246094 224.777344 80.300781 224.777344 L 294.460938 224.777344 C 295.519531 224.777344 296.457031 224.878906 297.242188 225.058594 C 298.027344 225.242188 298.65625 225.5 299.109375 225.820312 C 299.558594 226.140625 299.832031 226.519531 299.898438 226.9375 C 299.964844 227.351562 299.828125 227.804688 299.46875 228.277344 Z M 299.46875 228.277344" stroke="none" fill-rule="nonzero" fill="rgb(0, 0, 0)" fill-opacity="1"/></g><g clip-rule="nonzero" clip-path="url(#1cceb6c421)"><g transform="matrix(1,0,0,1,101,245)"><g clip-path="url(#a7008794af)"><g clip-rule="nonzero" clip-path="url(#445b5fec16)"><g mask="url(#a72547edc0)"><g id="30959c0983" clip-path="url(#688edbcc33)"><g clip-rule="nonzero" clip-path="url(#18101988c0)"><path d="M 64.917969 0.835938 C 64.917969 0.988281 68.203125 59.4375 11.894531 101.824219 L 6.910156 91.894531 C 60.816406 51.339844 59.164062 1.121094 59.164062 0.988281 Z M 64.917969 0.835938" stroke="none" fill-rule="nonzero" fill="rgb(0, 175, 239)" fill-opacity="1"/></g></g><mask id="a72547edc0"><g><g/></g></mask></g><g mask="url(#dc83cc9023)"><g id="34b44d147f" clip-path="url(#58a507bf17)"><g clip-rule="nonzero" clip-path="url(#bbdfedb380)"><path d="M 64.917969 0.835938 C 64.917969 0.988281 68.203125 59.4375 11.894531 101.824219 L 6.910156 91.894531 C 60.816406 51.339844 59.164062 1.121094 59.164062 0.988281 Z M 64.917969 0.835938" stroke="none" fill-rule="nonzero" fill="rgb(0, 175, 239)" fill-opacity="1"/></g></g><mask id="dc83cc9023"><g><g><g id="c3e160ac72" clip-path="url(#8ebd43c553)"><g clip-rule="nonzero" clip-path="url(#6310cd7b82)"><g><g id="aff557413d" clip-path="url(#c3663a8128)"><g clip-rule="nonzero" clip-path="url(#73e8afeea0)"><g mask="url(#316b3147c9)" transform="matrix(0.24,0,0,0.24,0.999998,0.0399839)"><mask id="316b3147c9"><g/></mask></g></g></g></g></g></g></g></g></mask></g></g></g></g></g><g clip-rule="nonzero" clip-path="url(#e87a9d02e0)"><g transform="matrix(1,0,0,1,94,322)"><g clip-path="url(#261c117d3c)"><g clip-rule="nonzero" clip-path="url(#6f2980a8ef)"><g mask="url(#4baee9ff9f)"><g id="a4c1f64d65" clip-path="url(#e54a453418)"><g clip-rule="nonzero" clip-path="url(#1672cc5e2e)"><path d="M 13.734375 5.121094 L 0.769531 34.421875 L 37.699219 18.558594 Z M 13.734375 5.121094" stroke="none" fill-rule="evenodd" fill="rgb(0, 175, 239)" fill-opacity="1"/></g></g><mask id="4baee9ff9f"><g><g transform="matrix(1,0,0,1,0,0.000000000000056843)"/></g></mask></g><g mask="url(#a6674ecb76)"><g id="3ac816d8ed" clip-path="url(#ecf6930882)"><g clip-rule="nonzero" clip-path="url(#aacfd82e25)"><path d="M 13.734375 5.121094 L 0.769531 34.421875 L 37.699219 18.558594 Z M 13.734375 5.121094" stroke="none" fill-rule="evenodd" fill="rgb(0, 175, 239)" fill-opacity="1"/></g></g><mask id="a6674ecb76"><g><g><g id="ccc8a17f71" clip-path="url(#fc823a9da1)"><g clip-rule="nonzero" clip-path="url(#b4c7de7855)"><g><g id="60772af04a" clip-path="url(#9f9f8a5d0e)"><g clip-rule="nonzero" clip-path="url(#1cee21d232)"><g mask="url(#95e1404d57)" transform="matrix(0.24,0,0,0.24,0.559998,1.999979)"><mask id="95e1404d57"><g/></mask></g></g></g></g></g></g></g></g></mask></g></g></g></g></g><g clip-rule="nonzero" clip-path="url(#9667a21ce1)"><g transform="matrix(1,0,0,1,191,245)"><g clip-path="url(#009b025afa)"><g clip-rule="nonzero" clip-path="url(#b8557c5896)"><g mask="url(#3b7530e432)"><g id="8a15c01a26" clip-path="url(#52795232d9)"><g clip-rule="nonzero" clip-path="url(#a0d1ca2513)"><path d="M 8.167969 0.835938 C 8.167969 0.988281 4.882812 59.4375 61.191406 101.824219 L 66.175781 91.894531 C 12.265625 51.339844 13.921875 1.121094 13.921875 0.988281 Z M 8.167969 0.835938" stroke="none" fill-rule="nonzero" fill="rgb(0, 175, 239)" fill-opacity="1"/></g></g><mask id="3b7530e432"><g><g/></g></mask></g><g mask="url(#e41848823e)"><g id="c7447c6437" clip-path="url(#266bf27602)"><g clip-rule="nonzero" clip-path="url(#37c13bf048)"><path d="M 8.167969 0.835938 C 8.167969 0.988281 4.882812 59.4375 61.191406 101.824219 L 66.175781 91.894531 C 12.265625 51.339844 13.921875 1.121094 13.921875 0.988281 Z M 8.167969 0.835938" stroke="none" fill-rule="nonzero" fill="rgb(0, 175, 239)" fill-opacity="1"/></g></g><mask id="e41848823e"><g><g><g id="269985957a" clip-path="url(#6e5ae46f43)"><g clip-rule="nonzero" clip-path="url(#abfd9be596)"><g><g id="5a04f844f3" clip-path="url(#acfa94cc1c)"><g clip-rule="nonzero" clip-path="url(#aaca3ad98f)"><g mask="url(#39154f5a11)" transform="matrix(0.24,0,0,0.24,2.199992,0.0399839)"><mask id="39154f5a11"><g/></mask></g></g></g></g></g></g></g></g></mask></g></g></g></g></g><g clip-rule="nonzero" clip-path="url(#c0d4539062)"><g transform="matrix(1,0,0,1,229,322)"><g clip-path="url(#7a98f2cf1d)"><g clip-rule="nonzero" clip-path="url(#6129293a03)"><g mask="url(#9157c0da66)"><g id="c30cc7723a" clip-path="url(#e7b04baa35)"><g clip-rule="nonzero" clip-path="url(#425beb4e02)"><path d="M 28.351562 5.121094 L 41.3125 34.421875 L 4.382812 18.558594 Z M 28.351562 5.121094" stroke="none" fill-rule="evenodd" fill="rgb(0, 175, 239)" fill-opacity="1"/></g></g><mask id="9157c0da66"><g><g transform="matrix(1,0,0,1,0.000000000000028422,0.000000000000056843)"/></g></mask></g><g mask="url(#b23613e3cc)"><g id="59d9bf926b" clip-path="url(#eb8a80bcf9)"><g clip-rule="nonzero" clip-path="url(#c42c4dd590)"><path d="M 28.351562 5.121094 L 41.3125 34.421875 L 4.382812 18.558594 Z M 28.351562 5.121094" stroke="none" fill-rule="evenodd" fill="rgb(0, 175, 239)" fill-opacity="1"/></g></g><mask id="b23613e3cc"><g><g><g id="d578413132" clip-path="url(#d21162bbb5)"><g clip-rule="nonzero" clip-path="url(#6b7898989f)"><g><g id="f300ad4b53" clip-path="url(#faf6a9497f)"><g clip-rule="nonzero" clip-path="url(#c76162cc42)"><g mask="url(#9bc82beacc)" transform="matrix(0.24,0,0,0.24,0.679989,1.999979)"><mask id="9bc82beacc"><g/></mask></g></g></g></g></g></g></g></g></mask></g></g></g></g></g><g clip-rule="nonzero" clip-path="url(#fa90e1ece7)"><g transform="matrix(1,0,0,1,167,245)"><g clip-path="url(#0be7e05630)"><g clip-rule="nonzero" clip-path="url(#f164806d20)"><g mask="url(#db54fa45ba)" transform="matrix(1,0,0,1,0.000000000000028422,0)"><g id="867596b324" clip-path="url(#2399a420fc)"><g clip-rule="nonzero" clip-path="url(#df34d2c0ba)"><path d="M 26.609375 99.332031 C 17.328125 62.550781 18.34375 12.132812 18.71875 0.195312 L 12.367188 0.195312 C 12.742188 12.132812 13.757812 62.550781 4.472656 99.332031 Z M 26.609375 99.332031" stroke="none" fill-rule="evenodd" fill="rgb(0, 175, 239)" fill-opacity="1"/></g></g><mask id="db54fa45ba"><g><g/></g></mask></g><g mask="url(#c2139f2f31)" transform="matrix(1,0,0,1,0.000000000000028422,0)"><g id="9d52ea2584" clip-path="url(#89c2cca3d6)"><g clip-rule="nonzero" clip-path="url(#842ecb80d2)"><path d="M 26.609375 99.332031 C 17.328125 62.550781 18.34375 12.132812 18.71875 0.195312 L 12.367188 0.195312 C 12.742188 12.132812 13.757812 62.550781 4.472656 99.332031 Z M 26.609375 99.332031" stroke="none" fill-rule="evenodd" fill="rgb(0, 175, 239)" fill-opacity="1"/></g></g><mask id="c2139f2f31"><g><g><g id="7a36c6c6d1" clip-path="url(#6c65b99b60)"><g clip-rule="nonzero" clip-path="url(#9de73c0a6d)"><g transform="matrix(1,0,0,1,0.000000000000028422,0)"><g id="d24439a69c" clip-path="url(#dbc2d07719)"><g clip-rule="nonzero" clip-path="url(#315bedb52d)"><g mask="url(#65178d07ec)" transform="matrix(0.24,0,0,0.24,2.199993,0.0399839)"><mask id="65178d07ec"><g/></mask></g></g></g></g></g></g></g></g></mask></g></g></g></g></g><g clip-rule="nonzero" clip-path="url(#ecb35a7567)"><g transform="matrix(1,0,0,1,158,335)"><g clip-path="url(#fd3b12f6d9)"><g clip-rule="nonzero" clip-path="url(#f6eb06ae57)"><g mask="url(#3ea773a260)"><g id="5a06a5de23" clip-path="url(#00aac0f819)"><g clip-rule="nonzero" clip-path="url(#0cfbdcec60)"><path d="M 24.542969 30.886719 L 34.332031 18.132812 L 44.121094 5.382812 L 4.964844 5.382812 L 14.753906 18.132812 Z M 24.542969 30.886719" stroke="none" fill-rule="evenodd" fill="rgb(0, 175, 239)" fill-opacity="1"/></g></g><mask id="3ea773a260"><g><g/></g></mask></g><g mask="url(#4b86a87522)"><g id="6711b1e75c" clip-path="url(#75ee02390e)"><g clip-rule="nonzero" clip-path="url(#23034e3eae)"><path d="M 24.542969 30.886719 L 34.332031 18.132812 L 44.121094 5.382812 L 4.964844 5.382812 L 14.753906 18.132812 Z M 24.542969 30.886719" stroke="none" fill-rule="evenodd" fill="rgb(0, 175, 239)" fill-opacity="1"/></g></g><mask id="4b86a87522"><g><g><g id="8e8230c809" clip-path="url(#9c44e88f41)"><g clip-rule="nonzero" clip-path="url(#4d7ea117a2)"><g><g id="887ef750bf" clip-path="url(#58c0b82d20)"><g clip-rule="nonzero" clip-path="url(#030cd5e31f)"><g mask="url(#f0e1e4fee8)" transform="matrix(0.24,0,0,0.24,0.879994,2.679978)"><mask id="f0e1e4fee8"><g transform="matrix(1,0,0,1,-0.000000000000000444,0)"/></mask></g></g></g></g></g></g></g></g></mask></g></g></g></g></g><g fill="rgb(0, 74, 173)" fill-opacity="0.4"><g transform="translate(155.389345, 63.040821)"><path d="M 1.3125 0 L 1.3125 -18.953125 L 4.265625 -18.953125 L 4.265625 -10.515625 L 11.84375 -10.515625 L 11.84375 -18.953125 L 14.796875 -18.953125 L 14.796875 0.65625 L 11.84375 0.65625 L 11.84375 -7.640625 L 4.265625 -7.640625 L 4.265625 0.65625 L 1.3125 0.65625 Z M 1.3125 0" stroke="none"/></g></g><g fill="rgb(0, 74, 173)" fill-opacity="0.4"><g transform="translate(171.494397, 63.040821)"><path d="M 8.859375 -3.953125 L 13.78125 -18.5 L 13.9375 -18.953125 L 17.015625 -18.953125 L 16.734375 -18.09375 L 10.25 0.203125 L 10.09375 0.65625 L 7.453125 0.65625 L 7.296875 0.234375 L 0.578125 -18.0625 L 0.234375 -18.953125 L 3.421875 -18.953125 L 3.5625 -18.53125 Z M 8.859375 -3.953125" stroke="none"/></g></g><g fill="rgb(0, 74, 173)" fill-opacity="1"><g transform="translate(154.233788, 61.885257)"><path d="M 1.3125 0 L 1.3125 -18.953125 L 4.265625 -18.953125 L 4.265625 -10.515625 L 11.84375 -10.515625 L 11.84375 -18.953125 L 14.796875 -18.953125 L 14.796875 0.65625 L 11.84375 0.65625 L 11.84375 -7.640625 L 4.265625 -7.640625 L 4.265625 0.65625 L 1.3125 0.65625 Z M 1.3125 0" stroke="none"/></g></g><g fill="rgb(0, 74, 173)" fill-opacity="1"><g transform="translate(170.33884, 61.885257)"><path d="M 8.859375 -3.953125 L 13.78125 -18.5 L 13.9375 -18.953125 L 17.015625 -18.953125 L 16.734375 -18.09375 L 10.25 0.203125 L 10.09375 0.65625 L 7.453125 0.65625 L 7.296875 0.234375 L 0.578125 -18.0625 L 0.234375 -18.953125 L 3.421875 -18.953125 L 3.5625 -18.53125 Z M 8.859375 -3.953125" stroke="none"/></g></g><g fill="rgb(0, 74, 173)" fill-opacity="0.4"><g transform="translate(188.858093, 63.040821)"><path d="M 12.125 -4.1875 L 5.015625 -4.1875 L 3.5 0.203125 L 3.34375 0.65625 L 0.234375 0.65625 L 0.546875 -0.203125 L 7.15625 -18.5 L 7.3125 -18.953125 L 9.828125 -18.953125 L 9.984375 -18.53125 L 16.828125 -0.234375 L 17.171875 0.65625 L 13.859375 0.65625 L 13.703125 0.203125 Z M 5.90625 -6.796875 L 11.21875 -6.796875 L 8.5 -14.328125 Z M 5.90625 -6.796875" stroke="none"/></g></g><g fill="rgb(0, 74, 173)" fill-opacity="0.4"><g transform="translate(206.427245, 63.040821)"><path d="M 12.234375 -15.890625 C 11.535156 -16.117188 10.8125 -16.234375 10.0625 -16.234375 C 8.300781 -16.234375 6.878906 -15.585938 5.796875 -14.296875 C 4.679688 -12.972656 4.125 -10.992188 4.125 -8.359375 C 4.125 -5.765625 4.691406 -3.976562 5.828125 -3 C 6.578125 -2.320312 7.640625 -1.984375 9.015625 -1.984375 C 9.484375 -1.984375 9.957031 -2.007812 10.4375 -2.0625 C 10.914062 -2.113281 11.394531 -2.191406 11.875 -2.296875 C 12.8125 -2.523438 13.4375 -2.726562 13.75 -2.90625 L 14.453125 -3.3125 L 14.6875 -2.515625 L 15.0625 -1.234375 L 15.1875 -0.765625 L 14.796875 -0.5 C 13.941406 0.0625 12.503906 0.445312 10.484375 0.65625 C 10.179688 0.6875 9.878906 0.710938 9.578125 0.734375 C 9.273438 0.753906 8.957031 0.765625 8.625 0.765625 C 7.96875 0.765625 7.191406 0.65625 6.296875 0.4375 C 5.359375 0.21875 4.5 -0.234375 3.71875 -0.921875 C 1.9375 -2.410156 1.046875 -4.863281 1.046875 -8.28125 C 1.046875 -11.644531 1.863281 -14.269531 3.5 -16.15625 C 4.039062 -16.78125 4.644531 -17.304688 5.3125 -17.734375 C 5.988281 -18.160156 6.707031 -18.476562 7.46875 -18.6875 C 8.238281 -18.894531 9.0625 -19 9.9375 -19 C 11.394531 -19 12.664062 -18.703125 13.75 -18.109375 C 14.164062 -17.890625 14.503906 -17.640625 14.765625 -17.359375 L 14.953125 -17.171875 L 14.953125 -12.5 L 14.328125 -12.46875 L 13.59375 -12.421875 L 13.015625 -12.390625 L 12.359375 -12.359375 L 12.34375 -13.015625 Z M 12.234375 -15.890625" stroke="none"/></g></g><g fill="rgb(46, 46, 46)" fill-opacity="1"><g transform="translate(187.702536, 61.885257)"><path d="M 12.125 -4.1875 L 5.015625 -4.1875 L 3.5 0.203125 L 3.34375 0.65625 L 0.234375 0.65625 L 0.546875 -0.203125 L 7.15625 -18.5 L 7.3125 -18.953125 L 9.828125 -18.953125 L 9.984375 -18.53125 L 16.828125 -0.234375 L 17.171875 0.65625 L 13.859375 0.65625 L 13.703125 0.203125 Z M 5.90625 -6.796875 L 11.21875 -6.796875 L 8.5 -14.328125 Z M 5.90625 -6.796875" stroke="none"/></g></g><g fill="rgb(46, 46, 46)" fill-opacity="1"><g transform="translate(205.271688, 61.885257)"><path d="M 12.234375 -15.890625 C 11.535156 -16.117188 10.8125 -16.234375 10.0625 -16.234375 C 8.300781 -16.234375 6.878906 -15.585938 5.796875 -14.296875 C 4.679688 -12.972656 4.125 -10.992188 4.125 -8.359375 C 4.125 -5.765625 4.691406 -3.976562 5.828125 -3 C 6.578125 -2.320312 7.640625 -1.984375 9.015625 -1.984375 C 9.484375 -1.984375 9.957031 -2.007812 10.4375 -2.0625 C 10.914062 -2.113281 11.394531 -2.191406 11.875 -2.296875 C 12.8125 -2.523438 13.4375 -2.726562 13.75 -2.90625 L 14.453125 -3.3125 L 14.6875 -2.515625 L 15.0625 -1.234375 L 15.1875 -0.765625 L 14.796875 -0.5 C 13.941406 0.0625 12.503906 0.445312 10.484375 0.65625 C 10.179688 0.6875 9.878906 0.710938 9.578125 0.734375 C 9.273438 0.753906 8.957031 0.765625 8.625 0.765625 C 7.96875 0.765625 7.191406 0.65625 6.296875 0.4375 C 5.359375 0.21875 4.5 -0.234375 3.71875 -0.921875 C 1.9375 -2.410156 1.046875 -4.863281 1.046875 -8.28125 C 1.046875 -11.644531 1.863281 -14.269531 3.5 -16.15625 C 4.039062 -16.78125 4.644531 -17.304688 5.3125 -17.734375 C 5.988281 -18.160156 6.707031 -18.476562 7.46875 -18.6875 C 8.238281 -18.894531 9.0625 -19 9.9375 -19 C 11.394531 -19 12.664062 -18.703125 13.75 -18.109375 C 14.164062 -17.890625 14.503906 -17.640625 14.765625 -17.359375 L 14.953125 -17.171875 L 14.953125 -12.5 L 14.328125 -12.46875 L 13.59375 -12.421875 L 13.015625 -12.390625 L 12.359375 -12.359375 L 12.34375 -13.015625 Z M 12.234375 -15.890625" stroke="none"/></g></g><g fill="rgb(67, 67, 69)" fill-opacity="0.4"><g transform="translate(136.697603, 123.018179)"><path d="M 9.671875 -10 C 9.503906 -10.207031 9.101562 -10.378906 8.46875 -10.515625 C 8.351562 -10.535156 8.210938 -10.550781 8.046875 -10.5625 C 7.890625 -10.582031 7.703125 -10.59375 7.484375 -10.59375 C 7.285156 -10.59375 7.070312 -10.566406 6.84375 -10.515625 C 6.625 -10.460938 6.382812 -10.390625 6.125 -10.296875 C 6.019531 -10.253906 5.914062 -10.207031 5.8125 -10.15625 C 5.71875 -10.113281 5.625 -10.0625 5.53125 -10 C 5.4375 -9.945312 5.335938 -9.882812 5.234375 -9.8125 C 5.140625 -9.75 5.046875 -9.679688 4.953125 -9.609375 C 4.867188 -9.535156 4.78125 -9.457031 4.6875 -9.375 C 3.6875 -8.425781 2.984375 -7.085938 2.578125 -5.359375 C 2.191406 -3.679688 2.285156 -2.535156 2.859375 -1.921875 C 3.035156 -1.722656 3.265625 -1.566406 3.546875 -1.453125 C 3.828125 -1.347656 4.1875 -1.296875 4.625 -1.296875 C 5.425781 -1.296875 6.226562 -1.390625 7.03125 -1.578125 L 8.015625 -5.390625 L 8.09375 -5.703125 L 9.890625 -5.703125 L 9.765625 -5.1875 L 8.703125 -0.578125 L 8.671875 -0.390625 L 8.5 -0.3125 C 8.34375 -0.21875 8.15625 -0.128906 7.9375 -0.046875 C 7.320312 0.160156 6.5 0.316406 5.46875 0.421875 C 5.34375 0.429688 5.210938 0.441406 5.078125 0.453125 C 4.953125 0.472656 4.820312 0.484375 4.6875 0.484375 C 4.550781 0.492188 4.414062 0.5 4.28125 0.5 C 3.832031 0.5 3.332031 0.429688 2.78125 0.296875 C 2.1875 0.128906 1.675781 -0.175781 1.25 -0.625 C 0.289062 -1.632812 0.0664062 -3.257812 0.578125 -5.5 C 1.078125 -7.675781 1.992188 -9.363281 3.328125 -10.5625 C 4.660156 -11.78125 6.175781 -12.390625 7.875 -12.390625 L 7.90625 -12.390625 L 8.453125 -12.359375 C 8.648438 -12.335938 8.828125 -12.3125 8.984375 -12.28125 C 9.140625 -12.257812 9.289062 -12.226562 9.4375 -12.1875 C 9.59375 -12.15625 9.734375 -12.113281 9.859375 -12.0625 C 9.984375 -12.019531 10.09375 -11.972656 10.1875 -11.921875 C 10.28125 -11.859375 10.363281 -11.800781 10.4375 -11.75 C 10.507812 -11.707031 10.578125 -11.660156 10.640625 -11.609375 C 10.710938 -11.554688 10.773438 -11.503906 10.828125 -11.453125 C 10.890625 -11.398438 10.945312 -11.335938 11 -11.265625 L 11.171875 -11.015625 L 10.953125 -10.75 L 10.328125 -9.984375 L 9.984375 -9.578125 Z M 9.671875 -10" stroke="none"/></g></g><g fill="rgb(67, 67, 69)" fill-opacity="0.4"><g transform="translate(147.415132, 123.018179)"><path d="M 7.203125 -2.734375 L 2.578125 -2.734375 L 0.890625 0.21875 L 0.75 0.421875 L -1.34375 0.421875 L -0.96875 -0.21875 L 6.09375 -12.15625 L 6.234375 -12.359375 L 7.890625 -12.359375 L 7.9375 -12 L 9.640625 -0.0625 L 9.71875 0.421875 L 7.59375 0.421875 L 7.546875 0.046875 Z M 3.546875 -4.4375 L 6.984375 -4.4375 L 6.375 -9.328125 Z M 3.546875 -4.4375" stroke="none"/></g></g><g fill="rgb(67, 67, 69)" fill-opacity="0.4"><g transform="translate(158.865345, 123.018179)"><path d="M 11.765625 -11.828125 L 10.1875 -5.015625 C 10.050781 -4.398438 9.875 -3.832031 9.65625 -3.3125 C 9.445312 -2.800781 9.191406 -2.332031 8.890625 -1.90625 C 8.597656 -1.488281 8.265625 -1.113281 7.890625 -0.78125 C 6.890625 0.0703125 5.691406 0.5 4.296875 0.5 C 2.890625 0.5 1.867188 0.140625 1.234375 -0.578125 C 0.421875 -1.515625 0.265625 -3.0625 0.765625 -5.21875 L 2.328125 -12.03125 L 2.40625 -12.359375 L 4.4375 -12.359375 L 4.3125 -11.828125 L 2.75 -5.03125 C 2.40625 -3.519531 2.453125 -2.472656 2.890625 -1.890625 C 3.046875 -1.703125 3.257812 -1.554688 3.53125 -1.453125 C 3.800781 -1.347656 4.148438 -1.296875 4.578125 -1.296875 C 5.859375 -1.296875 6.875 -1.976562 7.625 -3.34375 C 7.757812 -3.59375 7.882812 -3.875 8 -4.1875 C 8.113281 -4.5 8.210938 -4.847656 8.296875 -5.234375 L 9.875 -12.03125 L 9.9375 -12.359375 L 11.875 -12.359375 Z M 11.765625 -11.828125" stroke="none"/></g></g><g fill="rgb(67, 67, 69)" fill-opacity="0.4"><g transform="translate(170.059967, 123.018179)"><path d="M 2.359375 -0.109375 L 4.75 -10.484375 L 1.328125 -10.484375 L 1.5 -11.046875 L 1.828125 -12.0625 L 1.921875 -12.359375 L 10.53125 -12.359375 L 10.359375 -11.796875 L 10.046875 -10.78125 L 9.9375 -10.484375 L 6.703125 -10.484375 L 4.25 0.109375 L 4.171875 0.421875 L 2.234375 0.421875 Z M 2.359375 -0.109375" stroke="none"/></g></g><g fill="rgb(67, 67, 69)" fill-opacity="0.4"><g transform="translate(179.397338, 123.018179)"><path d="M 7.203125 -2.734375 L 2.578125 -2.734375 L 0.890625 0.21875 L 0.75 0.421875 L -1.34375 0.421875 L -0.96875 -0.21875 L 6.09375 -12.15625 L 6.234375 -12.359375 L 7.890625 -12.359375 L 7.9375 -12 L 9.640625 -0.0625 L 9.71875 0.421875 L 7.59375 0.421875 L 7.546875 0.046875 Z M 3.546875 -4.4375 L 6.984375 -4.4375 L 6.375 -9.328125 Z M 3.546875 -4.4375" stroke="none"/></g></g><g fill="rgb(67, 67, 69)" fill-opacity="0.4"><g transform="translate(190.847551, 123.018179)"><path d="M -0.546875 -0.109375 L 2.21875 -12.03125 L 2.28125 -12.359375 L 4.109375 -12.359375 L 4.1875 -12.046875 L 6.34375 -4.171875 L 12.203125 -12.1875 L 12.328125 -12.359375 L 14.234375 -12.359375 L 14.109375 -11.828125 L 11.359375 0.109375 L 11.28125 0.421875 L 9.34375 0.421875 L 9.453125 -0.109375 L 11.28125 -8.046875 L 7.03125 -2.25 L 6.828125 -1.984375 L 6.71875 -1.8125 L 5.015625 -1.8125 L 4.921875 -2.109375 L 3.265625 -8.203125 L 1.34375 0.109375 L 1.28125 0.421875 L -0.671875 0.421875 Z M -0.546875 -0.109375" stroke="none"/></g></g><g fill="rgb(67, 67, 69)" fill-opacity="0.4"><g transform="translate(204.512826, 123.018179)"><path d="" stroke="none"/></g></g><g fill="rgb(67, 67, 69)" fill-opacity="1"><g transform="translate(135.944394, 122.26497)"><path d="M 9.671875 -10 C 9.503906 -10.207031 9.101562 -10.378906 8.46875 -10.515625 C 8.351562 -10.535156 8.210938 -10.550781 8.046875 -10.5625 C 7.890625 -10.582031 7.703125 -10.59375 7.484375 -10.59375 C 7.285156 -10.59375 7.070312 -10.566406 6.84375 -10.515625 C 6.625 -10.460938 6.382812 -10.390625 6.125 -10.296875 C 6.019531 -10.253906 5.914062 -10.207031 5.8125 -10.15625 C 5.71875 -10.113281 5.625 -10.0625 5.53125 -10 C 5.4375 -9.945312 5.335938 -9.882812 5.234375 -9.8125 C 5.140625 -9.75 5.046875 -9.679688 4.953125 -9.609375 C 4.867188 -9.535156 4.78125 -9.457031 4.6875 -9.375 C 3.6875 -8.425781 2.984375 -7.085938 2.578125 -5.359375 C 2.191406 -3.679688 2.285156 -2.535156 2.859375 -1.921875 C 3.035156 -1.722656 3.265625 -1.566406 3.546875 -1.453125 C 3.828125 -1.347656 4.1875 -1.296875 4.625 -1.296875 C 5.425781 -1.296875 6.226562 -1.390625 7.03125 -1.578125 L 8.015625 -5.390625 L 8.09375 -5.703125 L 9.890625 -5.703125 L 9.765625 -5.1875 L 8.703125 -0.578125 L 8.671875 -0.390625 L 8.5 -0.3125 C 8.34375 -0.21875 8.15625 -0.128906 7.9375 -0.046875 C 7.320312 0.160156 6.5 0.316406 5.46875 0.421875 C 5.34375 0.429688 5.210938 0.441406 5.078125 0.453125 C 4.953125 0.472656 4.820312 0.484375 4.6875 0.484375 C 4.550781 0.492188 4.414062 0.5 4.28125 0.5 C 3.832031 0.5 3.332031 0.429688 2.78125 0.296875 C 2.1875 0.128906 1.675781 -0.175781 1.25 -0.625 C 0.289062 -1.632812 0.0664062 -3.257812 0.578125 -5.5 C 1.078125 -7.675781 1.992188 -9.363281 3.328125 -10.5625 C 4.660156 -11.78125 6.175781 -12.390625 7.875 -12.390625 L 7.90625 -12.390625 L 8.453125 -12.359375 C 8.648438 -12.335938 8.828125 -12.3125 8.984375 -12.28125 C 9.140625 -12.257812 9.289062 -12.226562 9.4375 -12.1875 C 9.59375 -12.15625 9.734375 -12.113281 9.859375 -12.0625 C 9.984375 -12.019531 10.09375 -11.972656 10.1875 -11.921875 C 10.28125 -11.859375 10.363281 -11.800781 10.4375 -11.75 C 10.507812 -11.707031 10.578125 -11.660156 10.640625 -11.609375 C 10.710938 -11.554688 10.773438 -11.503906 10.828125 -11.453125 C 10.890625 -11.398438 10.945312 -11.335938 11 -11.265625 L 11.171875 -11.015625 L 10.953125 -10.75 L 10.328125 -9.984375 L 9.984375 -9.578125 Z M 9.671875 -10" stroke="none"/></g></g><g fill="rgb(67, 67, 69)" fill-opacity="1"><g transform="translate(146.661923, 122.26497)"><path d="M 7.203125 -2.734375 L 2.578125 -2.734375 L 0.890625 0.21875 L 0.75 0.421875 L -1.34375 0.421875 L -0.96875 -0.21875 L 6.09375 -12.15625 L 6.234375 -12.359375 L 7.890625 -12.359375 L 7.9375 -12 L 9.640625 -0.0625 L 9.71875 0.421875 L 7.59375 0.421875 L 7.546875 0.046875 Z M 3.546875 -4.4375 L 6.984375 -4.4375 L 6.375 -9.328125 Z M 3.546875 -4.4375" stroke="none"/></g></g><g fill="rgb(67, 67, 69)" fill-opacity="1"><g transform="translate(158.112136, 122.26497)"><path d="M 11.765625 -11.828125 L 10.1875 -5.015625 C 10.050781 -4.398438 9.875 -3.832031 9.65625 -3.3125 C 9.445312 -2.800781 9.191406 -2.332031 8.890625 -1.90625 C 8.597656 -1.488281 8.265625 -1.113281 7.890625 -0.78125 C 6.890625 0.0703125 5.691406 0.5 4.296875 0.5 C 2.890625 0.5 1.867188 0.140625 1.234375 -0.578125 C 0.421875 -1.515625 0.265625 -3.0625 0.765625 -5.21875 L 2.328125 -12.03125 L 2.40625 -12.359375 L 4.4375 -12.359375 L 4.3125 -11.828125 L 2.75 -5.03125 C 2.40625 -3.519531 2.453125 -2.472656 2.890625 -1.890625 C 3.046875 -1.703125 3.257812 -1.554688 3.53125 -1.453125 C 3.800781 -1.347656 4.148438 -1.296875 4.578125 -1.296875 C 5.859375 -1.296875 6.875 -1.976562 7.625 -3.34375 C 7.757812 -3.59375 7.882812 -3.875 8 -4.1875 C 8.113281 -4.5 8.210938 -4.847656 8.296875 -5.234375 L 9.875 -12.03125 L 9.9375 -12.359375 L 11.875 -12.359375 Z M 11.765625 -11.828125" stroke="none"/></g></g><g fill="rgb(67, 67, 69)" fill-opacity="1"><g transform="translate(169.306758, 122.26497)"><path d="M 2.359375 -0.109375 L 4.75 -10.484375 L 1.328125 -10.484375 L 1.5 -11.046875 L 1.828125 -12.0625 L 1.921875 -12.359375 L 10.53125 -12.359375 L 10.359375 -11.796875 L 10.046875 -10.78125 L 9.9375 -10.484375 L 6.703125 -10.484375 L 4.25 0.109375 L 4.171875 0.421875 L 2.234375 0.421875 Z M 2.359375 -0.109375" stroke="none"/></g></g><g fill="rgb(67, 67, 69)" fill-opacity="1"><g transform="translate(178.644129, 122.26497)"><path d="M 7.203125 -2.734375 L 2.578125 -2.734375 L 0.890625 0.21875 L 0.75 0.421875 L -1.34375 0.421875 L -0.96875 -0.21875 L 6.09375 -12.15625 L 6.234375 -12.359375 L 7.890625 -12.359375 L 7.9375 -12 L 9.640625 -0.0625 L 9.71875 0.421875 L 7.59375 0.421875 L 7.546875 0.046875 Z M 3.546875 -4.4375 L 6.984375 -4.4375 L 6.375 -9.328125 Z M 3.546875 -4.4375" stroke="none"/></g></g><g fill="rgb(67, 67, 69)" fill-opacity="1"><g transform="translate(190.094343, 122.26497)"><path d="M -0.546875 -0.109375 L 2.21875 -12.03125 L 2.28125 -12.359375 L 4.109375 -12.359375 L 4.1875 -12.046875 L 6.34375 -4.171875 L 12.203125 -12.1875 L 12.328125 -12.359375 L 14.234375 -12.359375 L 14.109375 -11.828125 L 11.359375 0.109375 L 11.28125 0.421875 L 9.34375 0.421875 L 9.453125 -0.109375 L 11.28125 -8.046875 L 7.03125 -2.25 L 6.828125 -1.984375 L 6.71875 -1.8125 L 5.015625 -1.8125 L 4.921875 -2.109375 L 3.265625 -8.203125 L 1.34375 0.109375 L 1.28125 0.421875 L -0.671875 0.421875 Z M -0.546875 -0.109375" stroke="none"/></g></g><g fill="rgb(67, 67, 69)" fill-opacity="1"><g transform="translate(203.759617, 122.26497)"><path d="" stroke="none"/></g></g><g fill="rgb(67, 67, 69)" fill-opacity="0.4"><g transform="translate(209.611661, 123.018179)"><path d="M 8.640625 -10.484375 L 4.015625 -10.484375 L 3.171875 -6.859375 L 7.828125 -6.859375 L 7.65625 -6.296875 L 7.328125 -5.265625 L 7.21875 -4.984375 L 2.75 -4.984375 L 1.921875 -1.453125 L 7.359375 -1.453125 L 7.1875 -0.890625 L 6.875 0.140625 L 6.765625 0.421875 L -0.53125 0.421875 L -0.40625 -0.109375 L 2.34375 -12.03125 L 2.421875 -12.359375 L 9.546875 -12.359375 L 9.375 -11.796875 L 9.046875 -10.78125 L 8.953125 -10.484375 Z M 8.640625 -10.484375" stroke="none"/></g></g><g fill="rgb(67, 67, 69)" fill-opacity="0.4"><g transform="translate(218.199318, 123.018179)"><path d="M 7.265625 0.171875 L 3.375 -9 L 1.34375 0.078125 L 1.28125 0.421875 L -0.671875 0.421875 L -0.546875 -0.109375 L 2.21875 -12.03125 L 2.28125 -12.359375 L 4.15625 -12.359375 L 4.265625 -12.109375 L 8.125 -2.9375 L 10.171875 -12.015625 L 10.25 -12.359375 L 12.1875 -12.359375 L 12.0625 -11.828125 L 9.3125 0.109375 L 9.234375 0.421875 L 7.359375 0.421875 Z M 7.265625 0.171875" stroke="none"/></g></g><g fill="rgb(67, 67, 69)" fill-opacity="0.4"><g transform="translate(229.700641, 123.018179)"><path d="M 2.359375 -0.109375 L 4.75 -10.484375 L 1.328125 -10.484375 L 1.5 -11.046875 L 1.828125 -12.0625 L 1.921875 -12.359375 L 10.53125 -12.359375 L 10.359375 -11.796875 L 10.046875 -10.78125 L 9.9375 -10.484375 L 6.703125 -10.484375 L 4.25 0.109375 L 4.171875 0.421875 L 2.234375 0.421875 Z M 2.359375 -0.109375" stroke="none"/></g></g><g fill="rgb(67, 67, 69)" fill-opacity="0.4"><g transform="translate(239.038012, 123.018179)"><path d="M 8.640625 -10.484375 L 4.015625 -10.484375 L 3.171875 -6.859375 L 7.828125 -6.859375 L 7.65625 -6.296875 L 7.328125 -5.265625 L 7.21875 -4.984375 L 2.75 -4.984375 L 1.921875 -1.453125 L 7.359375 -1.453125 L 7.1875 -0.890625 L 6.875 0.140625 L 6.765625 0.421875 L -0.53125 0.421875 L -0.40625 -0.109375 L 2.34375 -12.03125 L 2.421875 -12.359375 L 9.546875 -12.359375 L 9.375 -11.796875 L 9.046875 -10.78125 L 8.953125 -10.484375 Z M 8.640625 -10.484375" stroke="none"/></g></g><g fill="rgb(67, 67, 69)" fill-opacity="0.4"><g transform="translate(247.62567, 123.018179)"><path d="M 9.015625 -8.625 C 8.640625 -7 7.851562 -5.859375 6.65625 -5.203125 L 7.890625 -0.109375 L 8.03125 0.421875 L 5.890625 0.421875 L 5.828125 0.109375 L 4.671875 -4.609375 C 4.335938 -4.566406 3.988281 -4.546875 3.625 -4.546875 L 2.65625 -4.546875 L 1.5625 0.109375 L 1.5 0.421875 L -0.53125 0.421875 L -0.40625 -0.109375 L 2.34375 -12.03125 L 2.421875 -12.359375 L 5.234375 -12.359375 C 6.722656 -12.359375 7.773438 -12.109375 8.390625 -11.609375 C 8.773438 -11.304688 9.015625 -10.890625 9.109375 -10.359375 C 9.210938 -9.835938 9.179688 -9.257812 9.015625 -8.625 Z M 4.03125 -10.5625 L 3.046875 -6.34375 L 3.75 -6.34375 C 4.664062 -6.34375 5.398438 -6.523438 5.953125 -6.890625 C 6.203125 -7.054688 6.410156 -7.289062 6.578125 -7.59375 C 6.753906 -7.90625 6.898438 -8.296875 7.015625 -8.765625 L 7.0625 -8.9375 C 7.101562 -9.1875 7.117188 -9.398438 7.109375 -9.578125 C 7.097656 -9.765625 7.050781 -9.914062 6.96875 -10.03125 C 6.882812 -10.15625 6.773438 -10.253906 6.640625 -10.328125 C 6.503906 -10.398438 6.332031 -10.453125 6.125 -10.484375 C 5.9375 -10.515625 5.742188 -10.535156 5.546875 -10.546875 C 5.359375 -10.554688 5.148438 -10.5625 4.921875 -10.5625 Z M 4.03125 -10.5625" stroke="none"/></g></g><g fill="rgb(67, 67, 69)" fill-opacity="0.4"><g transform="translate(257.235662, 123.018179)"><path d="M -0.40625 -0.109375 L 2.34375 -12.03125 L 2.421875 -12.359375 L 5.234375 -12.359375 C 6.734375 -12.359375 7.785156 -12.101562 8.390625 -11.59375 C 9.128906 -10.96875 9.332031 -9.953125 9 -8.546875 C 8.84375 -7.816406 8.597656 -7.175781 8.265625 -6.625 C 7.941406 -6.070312 7.546875 -5.609375 7.078125 -5.234375 C 6.609375 -4.867188 6.066406 -4.609375 5.453125 -4.453125 C 4.859375 -4.285156 4.222656 -4.203125 3.546875 -4.203125 L 2.578125 -4.203125 L 1.5625 0.109375 L 1.5 0.421875 L -0.53125 0.421875 Z M 4.03125 -10.5625 L 2.984375 -6 L 3.6875 -6 C 4.15625 -6 4.570312 -6.050781 4.9375 -6.15625 C 5.300781 -6.257812 5.613281 -6.40625 5.875 -6.59375 C 6.394531 -6.976562 6.757812 -7.628906 6.96875 -8.546875 C 7.039062 -8.847656 7.078125 -9.113281 7.078125 -9.34375 C 7.085938 -9.582031 7.066406 -9.757812 7.015625 -9.875 C 6.972656 -10 6.910156 -10.085938 6.828125 -10.140625 C 6.484375 -10.421875 5.847656 -10.5625 4.921875 -10.5625 Z M 4.03125 -10.5625" stroke="none"/></g></g><g fill="rgb(67, 67, 69)" fill-opacity="0.4"><g transform="translate(266.300412, 123.018179)"><path d="M 9.015625 -8.625 C 8.640625 -7 7.851562 -5.859375 6.65625 -5.203125 L 7.890625 -0.109375 L 8.03125 0.421875 L 5.890625 0.421875 L 5.828125 0.109375 L 4.671875 -4.609375 C 4.335938 -4.566406 3.988281 -4.546875 3.625 -4.546875 L 2.65625 -4.546875 L 1.5625 0.109375 L 1.5 0.421875 L -0.53125 0.421875 L -0.40625 -0.109375 L 2.34375 -12.03125 L 2.421875 -12.359375 L 5.234375 -12.359375 C 6.722656 -12.359375 7.773438 -12.109375 8.390625 -11.609375 C 8.773438 -11.304688 9.015625 -10.890625 9.109375 -10.359375 C 9.210938 -9.835938 9.179688 -9.257812 9.015625 -8.625 Z M 4.03125 -10.5625 L 3.046875 -6.34375 L 3.75 -6.34375 C 4.664062 -6.34375 5.398438 -6.523438 5.953125 -6.890625 C 6.203125 -7.054688 6.410156 -7.289062 6.578125 -7.59375 C 6.753906 -7.90625 6.898438 -8.296875 7.015625 -8.765625 L 7.0625 -8.9375 C 7.101562 -9.1875 7.117188 -9.398438 7.109375 -9.578125 C 7.097656 -9.765625 7.050781 -9.914062 6.96875 -10.03125 C 6.882812 -10.15625 6.773438 -10.253906 6.640625 -10.328125 C 6.503906 -10.398438 6.332031 -10.453125 6.125 -10.484375 C 5.9375 -10.515625 5.742188 -10.535156 5.546875 -10.546875 C 5.359375 -10.554688 5.148438 -10.5625 4.921875 -10.5625 Z M 4.03125 -10.5625" stroke="none"/></g></g><g fill="rgb(67, 67, 69)" fill-opacity="0.4"><g transform="translate(275.910404, 123.018179)"><path d="M 3.03125 0.421875 L -0.703125 0.421875 L -0.578125 -0.109375 L -0.390625 -0.921875 L -0.328125 -1.203125 L -0.03125 -1.25 L 0.734375 -1.328125 L 2.859375 -10.625 L 2.421875 -10.671875 L 1.9375 -10.734375 L 2.0625 -11.203125 L 2.265625 -12.03125 L 2.328125 -12.359375 L 6.25 -12.359375 L 6.125 -11.828125 L 5.90625 -11 L 5.84375 -10.703125 L 5.5625 -10.671875 L 4.890625 -10.59375 L 2.765625 -1.296875 L 3.265625 -1.25 L 3.75 -1.171875 L 3.625 -0.71875 L 3.4375 0.109375 L 3.375 0.421875 Z M 3.03125 0.421875" stroke="none"/></g></g><g fill="rgb(67, 67, 69)" fill-opacity="0.4"><g transform="translate(281.839977, 123.018179)"><path d="M 9.671875 -11.453125 L 9.21875 -10.484375 L 9.0625 -10.15625 L 8.734375 -10.25 C 7.929688 -10.425781 7.238281 -10.515625 6.65625 -10.515625 C 6.238281 -10.515625 5.859375 -10.488281 5.515625 -10.4375 C 5.171875 -10.382812 4.875 -10.3125 4.625 -10.21875 C 4.375 -10.132812 4.160156 -10.023438 3.984375 -9.890625 C 3.804688 -9.753906 3.660156 -9.597656 3.546875 -9.421875 C 3.441406 -9.242188 3.363281 -9.050781 3.3125 -8.84375 C 3.269531 -8.613281 3.257812 -8.441406 3.28125 -8.328125 C 3.3125 -8.222656 3.359375 -8.128906 3.421875 -8.046875 C 3.523438 -7.941406 3.648438 -7.84375 3.796875 -7.75 C 3.953125 -7.65625 4.132812 -7.566406 4.34375 -7.484375 C 4.78125 -7.316406 5.257812 -7.160156 5.78125 -7.015625 C 5.914062 -6.972656 6.050781 -6.929688 6.1875 -6.890625 C 6.320312 -6.847656 6.453125 -6.800781 6.578125 -6.75 C 6.710938 -6.707031 6.84375 -6.65625 6.96875 -6.59375 C 7.09375 -6.539062 7.210938 -6.476562 7.328125 -6.40625 C 7.910156 -6.082031 8.3125 -5.65625 8.53125 -5.125 C 8.757812 -4.59375 8.800781 -3.992188 8.65625 -3.328125 C 8.363281 -2.035156 7.65625 -1.0625 6.53125 -0.40625 C 5.59375 0.15625 4.472656 0.4375 3.171875 0.4375 C 2.367188 0.4375 1.640625 0.34375 0.984375 0.15625 C 0.335938 -0.03125 -0.222656 -0.3125 -0.703125 -0.6875 L -1.046875 -0.9375 L -0.78125 -1.28125 L -0.140625 -2.140625 L 0.140625 -2.5 L 0.46875 -2.21875 C 0.6875 -2.03125 1.035156 -1.851562 1.515625 -1.6875 C 1.992188 -1.519531 2.476562 -1.4375 2.96875 -1.4375 C 3.945312 -1.4375 4.75 -1.585938 5.375 -1.890625 C 6.0625 -2.253906 6.484375 -2.765625 6.640625 -3.421875 C 6.742188 -3.867188 6.710938 -4.203125 6.546875 -4.421875 C 6.335938 -4.691406 6.039062 -4.910156 5.65625 -5.078125 C 5.238281 -5.265625 4.773438 -5.425781 4.265625 -5.5625 C 3.691406 -5.707031 3.171875 -5.898438 2.703125 -6.140625 C 2.117188 -6.421875 1.703125 -6.789062 1.453125 -7.25 C 1.203125 -7.71875 1.144531 -8.25 1.28125 -8.84375 C 1.539062 -9.9375 2.117188 -10.800781 3.015625 -11.4375 C 3.898438 -12.070312 5.015625 -12.390625 6.359375 -12.390625 C 7.359375 -12.390625 8.363281 -12.269531 9.375 -12.03125 L 9.875 -11.921875 Z M 9.671875 -11.453125" stroke="none"/></g></g><g fill="rgb(67, 67, 69)" fill-opacity="0.4"><g transform="translate(291.330699, 123.018179)"><path d="M 8.640625 -10.484375 L 4.015625 -10.484375 L 3.171875 -6.859375 L 7.828125 -6.859375 L 7.65625 -6.296875 L 7.328125 -5.265625 L 7.21875 -4.984375 L 2.75 -4.984375 L 1.921875 -1.453125 L 7.359375 -1.453125 L 7.1875 -0.890625 L 6.875 0.140625 L 6.765625 0.421875 L -0.53125 0.421875 L -0.40625 -0.109375 L 2.34375 -12.03125 L 2.421875 -12.359375 L 9.546875 -12.359375 L 9.375 -11.796875 L 9.046875 -10.78125 L 8.953125 -10.484375 Z M 8.640625 -10.484375" stroke="none"/></g></g><g fill="rgb(0, 74, 173)" fill-opacity="1"><g transform="translate(208.858452, 122.26497)"><path d="M 8.640625 -10.484375 L 4.015625 -10.484375 L 3.171875 -6.859375 L 7.828125 -6.859375 L 7.65625 -6.296875 L 7.328125 -5.265625 L 7.21875 -4.984375 L 2.75 -4.984375 L 1.921875 -1.453125 L 7.359375 -1.453125 L 7.1875 -0.890625 L 6.875 0.140625 L 6.765625 0.421875 L -0.53125 0.421875 L -0.40625 -0.109375 L 2.34375 -12.03125 L 2.421875 -12.359375 L 9.546875 -12.359375 L 9.375 -11.796875 L 9.046875 -10.78125 L 8.953125 -10.484375 Z M 8.640625 -10.484375" stroke="none"/></g></g><g fill="rgb(0, 74, 173)" fill-opacity="1"><g transform="translate(217.446109, 122.26497)"><path d="M 7.265625 0.171875 L 3.375 -9 L 1.34375 0.078125 L 1.28125 0.421875 L -0.671875 0.421875 L -0.546875 -0.109375 L 2.21875 -12.03125 L 2.28125 -12.359375 L 4.15625 -12.359375 L 4.265625 -12.109375 L 8.125 -2.9375 L 10.171875 -12.015625 L 10.25 -12.359375 L 12.1875 -12.359375 L 12.0625 -11.828125 L 9.3125 0.109375 L 9.234375 0.421875 L 7.359375 0.421875 Z M 7.265625 0.171875" stroke="none"/></g></g><g fill="rgb(0, 74, 173)" fill-opacity="1"><g transform="translate(228.947432, 122.26497)"><path d="M 2.359375 -0.109375 L 4.75 -10.484375 L 1.328125 -10.484375 L 1.5 -11.046875 L 1.828125 -12.0625 L 1.921875 -12.359375 L 10.53125 -12.359375 L 10.359375 -11.796875 L 10.046875 -10.78125 L 9.9375 -10.484375 L 6.703125 -10.484375 L 4.25 0.109375 L 4.171875 0.421875 L 2.234375 0.421875 Z M 2.359375 -0.109375" stroke="none"/></g></g><g fill="rgb(0, 74, 173)" fill-opacity="1"><g transform="translate(238.284804, 122.26497)"><path d="M 8.640625 -10.484375 L 4.015625 -10.484375 L 3.171875 -6.859375 L 7.828125 -6.859375 L 7.65625 -6.296875 L 7.328125 -5.265625 L 7.21875 -4.984375 L 2.75 -4.984375 L 1.921875 -1.453125 L 7.359375 -1.453125 L 7.1875 -0.890625 L 6.875 0.140625 L 6.765625 0.421875 L -0.53125 0.421875 L -0.40625 -0.109375 L 2.34375 -12.03125 L 2.421875 -12.359375 L 9.546875 -12.359375 L 9.375 -11.796875 L 9.046875 -10.78125 L 8.953125 -10.484375 Z M 8.640625 -10.484375" stroke="none"/></g></g><g fill="rgb(0, 74, 173)" fill-opacity="1"><g transform="translate(246.872461, 122.26497)"><path d="M 9.015625 -8.625 C 8.640625 -7 7.851562 -5.859375 6.65625 -5.203125 L 7.890625 -0.109375 L 8.03125 0.421875 L 5.890625 0.421875 L 5.828125 0.109375 L 4.671875 -4.609375 C 4.335938 -4.566406 3.988281 -4.546875 3.625 -4.546875 L 2.65625 -4.546875 L 1.5625 0.109375 L 1.5 0.421875 L -0.53125 0.421875 L -0.40625 -0.109375 L 2.34375 -12.03125 L 2.421875 -12.359375 L 5.234375 -12.359375 C 6.722656 -12.359375 7.773438 -12.109375 8.390625 -11.609375 C 8.773438 -11.304688 9.015625 -10.890625 9.109375 -10.359375 C 9.210938 -9.835938 9.179688 -9.257812 9.015625 -8.625 Z M 4.03125 -10.5625 L 3.046875 -6.34375 L 3.75 -6.34375 C 4.664062 -6.34375 5.398438 -6.523438 5.953125 -6.890625 C 6.203125 -7.054688 6.410156 -7.289062 6.578125 -7.59375 C 6.753906 -7.90625 6.898438 -8.296875 7.015625 -8.765625 L 7.0625 -8.9375 C 7.101562 -9.1875 7.117188 -9.398438 7.109375 -9.578125 C 7.097656 -9.765625 7.050781 -9.914062 6.96875 -10.03125 C 6.882812 -10.15625 6.773438 -10.253906 6.640625 -10.328125 C 6.503906 -10.398438 6.332031 -10.453125 6.125 -10.484375 C 5.9375 -10.515625 5.742188 -10.535156 5.546875 -10.546875 C 5.359375 -10.554688 5.148438 -10.5625 4.921875 -10.5625 Z M 4.03125 -10.5625" stroke="none"/></g></g><g fill="rgb(0, 74, 173)" fill-opacity="1"><g transform="translate(256.482453, 122.26497)"><path d="M -0.40625 -0.109375 L 2.34375 -12.03125 L 2.421875 -12.359375 L 5.234375 -12.359375 C 6.734375 -12.359375 7.785156 -12.101562 8.390625 -11.59375 C 9.128906 -10.96875 9.332031 -9.953125 9 -8.546875 C 8.84375 -7.816406 8.597656 -7.175781 8.265625 -6.625 C 7.941406 -6.070312 7.546875 -5.609375 7.078125 -5.234375 C 6.609375 -4.867188 6.066406 -4.609375 5.453125 -4.453125 C 4.859375 -4.285156 4.222656 -4.203125 3.546875 -4.203125 L 2.578125 -4.203125 L 1.5625 0.109375 L 1.5 0.421875 L -0.53125 0.421875 Z M 4.03125 -10.5625 L 2.984375 -6 L 3.6875 -6 C 4.15625 -6 4.570312 -6.050781 4.9375 -6.15625 C 5.300781 -6.257812 5.613281 -6.40625 5.875 -6.59375 C 6.394531 -6.976562 6.757812 -7.628906 6.96875 -8.546875 C 7.039062 -8.847656 7.078125 -9.113281 7.078125 -9.34375 C 7.085938 -9.582031 7.066406 -9.757812 7.015625 -9.875 C 6.972656 -10 6.910156 -10.085938 6.828125 -10.140625 C 6.484375 -10.421875 5.847656 -10.5625 4.921875 -10.5625 Z M 4.03125 -10.5625" stroke="none"/></g></g><g fill="rgb(0, 74, 173)" fill-opacity="1"><g transform="translate(265.547203, 122.26497)"><path d="M 9.015625 -8.625 C 8.640625 -7 7.851562 -5.859375 6.65625 -5.203125 L 7.890625 -0.109375 L 8.03125 0.421875 L 5.890625 0.421875 L 5.828125 0.109375 L 4.671875 -4.609375 C 4.335938 -4.566406 3.988281 -4.546875 3.625 -4.546875 L 2.65625 -4.546875 L 1.5625 0.109375 L 1.5 0.421875 L -0.53125 0.421875 L -0.40625 -0.109375 L 2.34375 -12.03125 L 2.421875 -12.359375 L 5.234375 -12.359375 C 6.722656 -12.359375 7.773438 -12.109375 8.390625 -11.609375 C 8.773438 -11.304688 9.015625 -10.890625 9.109375 -10.359375 C 9.210938 -9.835938 9.179688 -9.257812 9.015625 -8.625 Z M 4.03125 -10.5625 L 3.046875 -6.34375 L 3.75 -6.34375 C 4.664062 -6.34375 5.398438 -6.523438 5.953125 -6.890625 C 6.203125 -7.054688 6.410156 -7.289062 6.578125 -7.59375 C 6.753906 -7.90625 6.898438 -8.296875 7.015625 -8.765625 L 7.0625 -8.9375 C 7.101562 -9.1875 7.117188 -9.398438 7.109375 -9.578125 C 7.097656 -9.765625 7.050781 -9.914062 6.96875 -10.03125 C 6.882812 -10.15625 6.773438 -10.253906 6.640625 -10.328125 C 6.503906 -10.398438 6.332031 -10.453125 6.125 -10.484375 C 5.9375 -10.515625 5.742188 -10.535156 5.546875 -10.546875 C 5.359375 -10.554688 5.148438 -10.5625 4.921875 -10.5625 Z M 4.03125 -10.5625" stroke="none"/></g></g><g fill="rgb(0, 74, 173)" fill-opacity="1"><g transform="translate(275.157196, 122.26497)"><path d="M 3.03125 0.421875 L -0.703125 0.421875 L -0.578125 -0.109375 L -0.390625 -0.921875 L -0.328125 -1.203125 L -0.03125 -1.25 L 0.734375 -1.328125 L 2.859375 -10.625 L 2.421875 -10.671875 L 1.9375 -10.734375 L 2.0625 -11.203125 L 2.265625 -12.03125 L 2.328125 -12.359375 L 6.25 -12.359375 L 6.125 -11.828125 L 5.90625 -11 L 5.84375 -10.703125 L 5.5625 -10.671875 L 4.890625 -10.59375 L 2.765625 -1.296875 L 3.265625 -1.25 L 3.75 -1.171875 L 3.625 -0.71875 L 3.4375 0.109375 L 3.375 0.421875 Z M 3.03125 0.421875" stroke="none"/></g></g><g fill="rgb(0, 74, 173)" fill-opacity="1"><g transform="translate(281.086768, 122.26497)"><path d="M 9.671875 -11.453125 L 9.21875 -10.484375 L 9.0625 -10.15625 L 8.734375 -10.25 C 7.929688 -10.425781 7.238281 -10.515625 6.65625 -10.515625 C 6.238281 -10.515625 5.859375 -10.488281 5.515625 -10.4375 C 5.171875 -10.382812 4.875 -10.3125 4.625 -10.21875 C 4.375 -10.132812 4.160156 -10.023438 3.984375 -9.890625 C 3.804688 -9.753906 3.660156 -9.597656 3.546875 -9.421875 C 3.441406 -9.242188 3.363281 -9.050781 3.3125 -8.84375 C 3.269531 -8.613281 3.257812 -8.441406 3.28125 -8.328125 C 3.3125 -8.222656 3.359375 -8.128906 3.421875 -8.046875 C 3.523438 -7.941406 3.648438 -7.84375 3.796875 -7.75 C 3.953125 -7.65625 4.132812 -7.566406 4.34375 -7.484375 C 4.78125 -7.316406 5.257812 -7.160156 5.78125 -7.015625 C 5.914062 -6.972656 6.050781 -6.929688 6.1875 -6.890625 C 6.320312 -6.847656 6.453125 -6.800781 6.578125 -6.75 C 6.710938 -6.707031 6.84375 -6.65625 6.96875 -6.59375 C 7.09375 -6.539062 7.210938 -6.476562 7.328125 -6.40625 C 7.910156 -6.082031 8.3125 -5.65625 8.53125 -5.125 C 8.757812 -4.59375 8.800781 -3.992188 8.65625 -3.328125 C 8.363281 -2.035156 7.65625 -1.0625 6.53125 -0.40625 C 5.59375 0.15625 4.472656 0.4375 3.171875 0.4375 C 2.367188 0.4375 1.640625 0.34375 0.984375 0.15625 C 0.335938 -0.03125 -0.222656 -0.3125 -0.703125 -0.6875 L -1.046875 -0.9375 L -0.78125 -1.28125 L -0.140625 -2.140625 L 0.140625 -2.5 L 0.46875 -2.21875 C 0.6875 -2.03125 1.035156 -1.851562 1.515625 -1.6875 C 1.992188 -1.519531 2.476562 -1.4375 2.96875 -1.4375 C 3.945312 -1.4375 4.75 -1.585938 5.375 -1.890625 C 6.0625 -2.253906 6.484375 -2.765625 6.640625 -3.421875 C 6.742188 -3.867188 6.710938 -4.203125 6.546875 -4.421875 C 6.335938 -4.691406 6.039062 -4.910156 5.65625 -5.078125 C 5.238281 -5.265625 4.773438 -5.425781 4.265625 -5.5625 C 3.691406 -5.707031 3.171875 -5.898438 2.703125 -6.140625 C 2.117188 -6.421875 1.703125 -6.789062 1.453125 -7.25 C 1.203125 -7.71875 1.144531 -8.25 1.28125 -8.84375 C 1.539062 -9.9375 2.117188 -10.800781 3.015625 -11.4375 C 3.898438 -12.070312 5.015625 -12.390625 6.359375 -12.390625 C 7.359375 -12.390625 8.363281 -12.269531 9.375 -12.03125 L 9.875 -11.921875 Z M 9.671875 -11.453125" stroke="none"/></g></g><g fill="rgb(0, 74, 173)" fill-opacity="1"><g transform="translate(290.57749, 122.26497)"><path d="M 8.640625 -10.484375 L 4.015625 -10.484375 L 3.171875 -6.859375 L 7.828125 -6.859375 L 7.65625 -6.296875 L 7.328125 -5.265625 L 7.21875 -4.984375 L 2.75 -4.984375 L 1.921875 -1.453125 L 7.359375 -1.453125 L 7.1875 -0.890625 L 6.875 0.140625 L 6.765625 0.421875 L -0.53125 0.421875 L -0.40625 -0.109375 L 2.34375 -12.03125 L 2.421875 -12.359375 L 9.546875 -12.359375 L 9.375 -11.796875 L 9.046875 -10.78125 L 8.953125 -10.484375 Z M 8.640625 -10.484375" stroke="none"/></g></g></g></svg>